<svg xmlns="http://www.w3.org/2000/svg" width="512" height="512"><path fill="#c70101" d="M512 256c0 141.385-114.615 256-256 256S0 397.385 0 256 114.615 0 256 0s256 114.615 256 256zm-464 0c0 114.875 93.125 208 208 208s208-93.125 208-208S370.875 48 256 48 48 141.125 48 256zm230.627-150.628l128 128.001c12.496 12.496 12.496 32.757 0 45.254s-32.758 12.497-45.256 0L288 205.255V384c0 17.673-14.327 32-32 32s-32-14.327-32-32V205.255l-73.372 73.373c-12.497 12.497-32.759 12.497-45.256 0C99.124 272.379 96 264.189 96 256s3.124-16.379 9.372-22.627l128-128.001c12.497-12.496 32.759-12.496 45.255 0z"/></svg>